<svg width="540" height="366" viewBox="0 0 540 366" fill="none" xmlns="http://www.w3.org/2000/svg">
<line x1="17.5" y1="-17.5" x2="259.003" y2="-17.5" transform="matrix(0.999993 -0.00382135 0.00378325 0.999993 1 36.9655)" stroke="#AE84C7" stroke-width="35" stroke-linecap="round"/>
<line x1="17.5" y1="-17.5" x2="283.062" y2="-17.5" transform="matrix(0.00349789 0.999994 -0.999994 0.00351964 360.402 11)" stroke="#AE84C7" stroke-width="35" stroke-linecap="round"/>
<line x1="18.5" y1="123.871" x2="271.566" y2="123.871" stroke="#AE84C7" stroke-width="35" stroke-linecap="round"/>
<line x1="17.5" y1="-17.5" x2="162.281" y2="-17.5" transform="matrix(0.999983 0.00587722 -0.00581863 0.999983 1 256.322)" stroke="#AE84C7" stroke-width="35" stroke-linecap="round"/>
<line x1="17.5" y1="-17.5" x2="162.281" y2="-17.5" transform="matrix(0.999983 -0.00587722 0.00581863 0.999983 1 366)" stroke="#AE84C7" stroke-width="35" stroke-linecap="round"/>
<path d="M381.302 299.033C381.302 311.461 374.627 323.851 361.583 333.645C348.534 343.443 329.821 349.945 308.515 349.945C287.209 349.945 268.496 343.443 255.447 333.645C242.403 323.851 235.729 311.461 235.729 299.033C235.729 286.605 242.403 274.215 255.447 264.421C268.496 254.624 287.209 248.121 308.515 248.121C329.821 248.121 348.534 254.624 361.583 264.421C374.627 274.215 381.302 286.605 381.302 299.033Z" stroke="#AE84C7" stroke-width="30"/>
<path d="M382.999 21.6602C387.885 27.8979 390.829 35.8291 398.52 39.2379C404.947 42.0869 411.874 43.1364 418.609 44.8879C430.667 48.0239 442.608 51.2127 454.594 54.43C464.238 57.0187 475.461 57.9276 484.384 62.4028C535.685 88.1334 523.811 161.351 523.811 208.109" stroke="#AE84C7" stroke-width="30" stroke-linecap="round"/>
<path d="M387.505 118.84C413.867 138.072 444.263 133.412 474.871 137.798C494.988 140.681 517.141 149.795 521.558 171.949" stroke="#AE84C7" stroke-width="30" stroke-linecap="round"/>
</svg>
