<svg width="540" height="368" viewBox="0 0 540 368" fill="none" xmlns="http://www.w3.org/2000/svg">
<line x1="17.5" y1="-17.5" x2="259.003" y2="-17.5" transform="matrix(0.999993 -0.00382135 0.00378325 0.999993 1 38.9655)" stroke="#E9C3FF" stroke-width="35" stroke-linecap="round"/>
<line x1="17.5" y1="-17.5" x2="283.062" y2="-17.5" transform="matrix(0.00349789 0.999994 -0.999994 0.00351964 357.402 1)" stroke="#E9C3FF" stroke-width="35" stroke-linecap="round"/>
<line x1="18.5" y1="125.871" x2="271.566" y2="125.871" stroke="#E9C3FF" stroke-width="35" stroke-linecap="round"/>
<line x1="17.5" y1="-17.5" x2="162.281" y2="-17.5" transform="matrix(0.999983 0.00587722 -0.00581863 0.999983 1 258.322)" stroke="#E9C3FF" stroke-width="35" stroke-linecap="round"/>
<line x1="17.5" y1="-17.5" x2="162.281" y2="-17.5" transform="matrix(0.999983 -0.00587722 0.00581863 0.999983 1 368)" stroke="#E9C4FF" stroke-width="35" stroke-linecap="round"/>
<path d="M381.302 301.033C381.302 313.461 374.627 325.851 361.583 335.645C348.534 345.443 329.821 351.945 308.515 351.945C287.209 351.945 268.496 345.443 255.447 335.645C242.403 325.851 235.729 313.461 235.729 301.033C235.729 288.605 242.403 276.215 255.447 266.421C268.496 256.624 287.209 250.121 308.515 250.121C329.821 250.121 348.534 256.624 361.583 266.421C374.627 276.215 381.302 288.605 381.302 301.033Z" stroke="#E9C3FF" stroke-width="30"/>
<path d="M382.999 23.6602C387.885 29.8979 390.829 37.8291 398.52 41.2379C404.947 44.0869 411.874 45.1364 418.609 46.8879C430.667 50.0239 442.608 53.2127 454.594 56.43C464.238 59.0187 475.461 59.9276 484.384 64.4028C535.685 90.1334 523.811 163.351 523.811 210.109" stroke="#E9C3FF" stroke-width="30" stroke-linecap="round"/>
<path d="M387.505 120.84C413.867 140.072 444.263 135.412 474.871 139.798C494.988 142.681 517.141 151.795 521.558 173.949" stroke="#E9C3FF" stroke-width="30" stroke-linecap="round"/>
</svg>
